<?xml version="1.0" encoding="UTF-8" standalone="no"?>
<svg
   xmlns:dc="http://purl.org/dc/elements/1.1/"
   xmlns:cc="http://creativecommons.org/ns#"
   xmlns:rdf="http://www.w3.org/1999/02/22-rdf-syntax-ns#"
   xmlns:svg="http://www.w3.org/2000/svg"
   xmlns="http://www.w3.org/2000/svg"
   xmlns:sodipodi="http://sodipodi.sourceforge.net/DTD/sodipodi-0.dtd"
   xmlns:inkscape="http://www.inkscape.org/namespaces/inkscape"
   id="svg"
   version="1.1"
   width="348.6936"
   height="75.187096"
   viewBox="0 0 348.6936 75.187096"
   sodipodi:docname="logo.svg"
   inkscape:version="0.92.3 (2405546, 2018-03-11)">
  <metadata
     id="metadata5466">
    <rdf:RDF>
      <cc:Work
         rdf:about="">
        <dc:format>image/svg+xml</dc:format>
        <dc:type
           rdf:resource="http://purl.org/dc/dcmitype/StillImage" />
        <dc:title></dc:title>
      </cc:Work>
    </rdf:RDF>
  </metadata>
  <defs
     id="defs5464" />
  <sodipodi:namedview
     pagecolor="#ffffff"
     bordercolor="#666666"
     borderopacity="1"
     objecttolerance="10"
     gridtolerance="10"
     guidetolerance="10"
     inkscape:pageopacity="0"
     inkscape:pageshadow="2"
     inkscape:window-width="1478"
     inkscape:window-height="1018"
     id="namedview5462"
     showgrid="false"
     fit-margin-top="0"
     fit-margin-left="0"
     fit-margin-right="0"
     fit-margin-bottom="0"
     inkscape:zoom="0.59"
     inkscape:cx="174.3646"
     inkscape:cy="37.510093"
     inkscape:window-x="1643"
     inkscape:window-y="0"
     inkscape:window-maximized="0"
     inkscape:current-layer="svg" />
  <g
     id="svgg"
     transform="translate(-25.635404,-162.323)">
    <path
       id="path0"
       d=""
       inkscape:connector-curvature="0"
       style="fill:#000000;fill-rule:evenodd;stroke:none" />
    <path
       id="path1"
       d="m 83.55,165.333 c 0,0.504 0.031,0.711 0.069,0.459 0.039,-0.252 0.039,-0.665 0,-0.917 -0.038,-0.252 -0.069,-0.046 -0.069,0.458 m 8.492,3.115 c 0.16,0.042 0.423,0.042 0.583,0 0.16,-0.042 0.029,-0.076 -0.292,-0.076 -0.32,0 -0.452,0.034 -0.291,0.076 m 261.261,27.177 c 2.138,0.026 5.588,0.026 7.667,0 2.079,-0.027 0.33,-0.048 -3.887,-0.048 -4.216,0 -5.917,0.021 -3.78,0.048 m -138.744,2.458 c 0,0.825 0.028,1.184 0.063,0.797 0.035,-0.387 0.035,-1.062 10e-4,-1.5 -0.035,-0.438 -0.063,-0.122 -0.064,0.703 m 33.333,0 c 0,0.825 0.028,1.184 0.063,0.797 0.035,-0.387 0.035,-1.062 10e-4,-1.5 -0.034,-0.438 -0.063,-0.122 -0.064,0.703"
       inkscape:connector-curvature="0"
       style="fill:#6d6d6d;fill-rule:evenodd;stroke:none" />
    <path
       id="path2"
       d=""
       inkscape:connector-curvature="0"
       style="fill:#ffffff;fill-rule:evenodd;stroke:none" />
    <path
       id="path3"
       d="m 78.7,162.533 c -0.237,0.238 -0.281,5.247 -0.049,5.613 0.08,0.127 0.435,0.239 0.789,0.251 l 0.643,0.02 v 4.583 4.583 l -9.576,0.043 c -5.642,0.026 -9.64,0.107 -9.732,0.199 -0.198,0.198 -0.179,59.338 0.02,59.537 0.079,0.078 2.613,0.123 5.632,0.099 l 5.49,-0.044 0.042,-24.125 0.042,-24.125 9.625,-0.003 c 5.293,-10e-4 9.717,-0.062 9.831,-0.134 0.161,-0.102 0.217,-2.434 0.25,-10.372 l 0.043,-10.241 0.583,-0.028 c 0.321,-0.015 0.677,-0.033 0.792,-0.041 0.291,-0.02 0.299,-5.524 0.008,-5.815 -0.28,-0.28 -5.32,-0.28 -5.6,0 -0.139,0.14 -0.2,1.045 -0.2,3 0,2.836 0.012,2.888 0.607,2.817 0.104,-0.012 0.386,0.052 0.626,0.143 l 0.437,0.167 -0.043,8.795 -0.043,8.795 -9.606,0.043 c -7.786,0.035 -9.641,0.085 -9.791,0.266 -0.134,0.162 -0.197,6.883 -0.228,24.124 l -0.042,23.9 h -2.917 -2.916 v -27 -27 l 9.568,-0.043 c 6.728,-0.03 9.634,-0.098 9.791,-0.228 0.18,-0.149 0.224,-1.335 0.224,-5.981 v -5.795 l 0.424,-0.106 c 0.234,-0.059 0.499,-0.061 0.591,-0.004 0.521,0.322 0.652,-0.285 0.652,-3.024 0,-2.522 -0.024,-2.736 -0.323,-2.896 -0.469,-0.251 -5.389,-0.227 -5.644,0.027 m 4.866,1.064 c 0.214,0.559 0.109,3.522 -0.132,3.722 -0.152,0.126 -0.829,0.177 -1.958,0.145 l -1.726,-0.047 -0.047,-2.042 -0.047,-2.042 h 1.904 c 1.583,0 1.921,0.045 2.006,0.264 m 8.684,1.82 v 2 h -1.917 -1.916 l -0.047,-2.047 -0.047,-2.047 1.963,0.047 1.964,0.047 v 2 m 12.694,13.694 c -0.061,0.061 -0.111,1.261 -0.111,2.667 v 2.555 h 5.917 5.917 v 12.167 12.167 h 2.583 2.583 V 196.5 184.333 h 5.834 5.833 V 181.667 179 h -14.222 c -7.822,0 -14.272,0.05 -14.334,0.111 m 33.667,0 c -0.061,0.061 -0.111,6.736 -0.111,14.833 v 14.723 h 12.833 12.834 V 206.083 203.5 H 154 143.833 v -9.583 -9.584 H 154 164.167 V 181.667 179 h -12.723 c -6.997,0 -12.772,0.05 -12.833,0.111 m 44.306,0.154 c -6.537,1.077 -11.14,5.62 -11.909,11.751 -1.021,8.139 2.777,14.664 9.963,17.121 l 1.279,0.438 10.125,0.054 10.125,0.054 v -2.581 -2.582 l -9.375,-0.057 c -9.221,-0.057 -9.394,-0.064 -10.505,-0.435 -2.341,-0.782 -4.611,-2.646 -5.441,-4.466 -0.203,-0.447 -0.436,-0.937 -0.517,-1.09 -1.352,-2.546 -0.223,-7.926 2.163,-10.313 2.612,-2.612 3.743,-2.819 15.471,-2.823 l 8.212,-0.003 -0.045,-2.625 -0.046,-2.625 -9.084,-0.019 c -6.812,-0.014 -9.416,0.036 -10.416,0.201 m 27.626,0.009 c -0.298,0.147 -0.71,0.539 -0.917,0.871 l -0.376,0.605 -0.047,13.958 -0.047,13.959 h 2.779 2.778 l -0.053,-5.959 c -0.03,-3.277 -0.04,-7.796 -0.023,-10.041 l 0.032,-4.084 9.791,9.8 c 10.163,10.172 10.692,10.641 12.04,10.666 2.245,0.041 2.177,0.552 2.126,-16.053 l -0.043,-13.913 -2.625,-0.046 -2.625,-0.045 v 10.208 10.208 l -9.958,-9.932 c -11.279,-11.249 -11.061,-11.075 -12.832,-10.202 m 37.388,-0.13 c -0.052,0.084 -0.089,6.761 -0.081,14.838 l 0.014,14.685 h 2.735 2.736 l -0.042,-14.792 -0.043,-14.792 -2.613,-0.046 c -1.456,-0.025 -2.654,0.022 -2.706,0.107 m 25.319,0.121 c -7.502,1.236 -12.083,6.584 -12.125,14.152 -0.04,7.169 3.719,12.564 10.292,14.77 1.166,0.391 1.172,0.392 11.291,0.443 l 10.125,0.051 v -2.58 -2.581 l -9.375,-0.061 -9.375,-0.061 -1.252,-0.419 c -9.628,-3.22 -8.026,-17.41 2.086,-18.481 0.825,-0.087 5.195,-0.16 9.712,-0.162 l 8.213,-0.003 -0.046,-2.625 -0.046,-2.625 -9.083,-0.019 c -6.813,-0.014 -9.417,0.036 -10.417,0.201 m 37.54,0.001 c -6.472,1.01 -11.027,5.352 -11.97,11.411 -1.277,8.197 2.796,15.204 10.18,17.515 1.234,0.386 1.346,0.391 8.75,0.391 h 7.5 l 1.417,-0.473 c 13.422,-4.487 13.565,-24.296 0.204,-28.352 -2.499,-0.759 -12.426,-1.063 -16.081,-0.492 M 348,179.263 c -0.687,0.125 -1.4,0.296 -1.583,0.381 -4.081,1.882 -5.334,3.668 -5.334,7.602 0,3.672 1.287,5.799 4.417,7.302 1.847,0.887 2.577,0.949 11.083,0.952 4.535,0.001 8.11,0.074 8.75,0.177 4.858,0.784 5.697,5.395 1.334,7.331 l -0.917,0.407 -12.125,0.05 -12.125,0.049 v 2.576 2.577 h 12.325 c 14.46,0 14.37,0.01 17.05,-1.97 5.299,-3.914 4.328,-12.581 -1.728,-15.431 -2.107,-0.991 -2.013,-0.982 -11.564,-1.086 l -8.833,-0.097 -0.704,-0.457 c -1.847,-1.201 -1.626,-3.816 0.406,-4.817 l 0.798,-0.392 11.625,-0.049 11.625,-0.049 V 181.659 179 l -11.625,0.018 c -9.025,0.014 -11.905,0.069 -12.875,0.245 m -25.13,5.229 c 10.519,1.107 11.877,15.856 1.713,18.609 -1.987,0.538 -12.54,0.474 -14.166,-0.086 -1.888,-0.651 -3.567,-1.733 -4.38,-2.825 -0.248,-0.334 -0.491,-0.644 -0.54,-0.69 -1.334,-1.262 -2.055,-6.479 -1.186,-8.583 1.622,-3.927 4.165,-6 7.856,-6.403 1.751,-0.191 8.955,-0.206 10.703,-0.022 m -177.037,9.175 v 2.666 h 8.5 8.5 V 193.667 191 h -8.5 -8.5 v 2.667"
       inkscape:connector-curvature="0"
       style="fill:#bbbcbe;fill-rule:evenodd;stroke:none" />
    <path
       id="path4"
       d="m 25.875,162.444 c -0.354,0.143 -0.299,26.485 0.055,26.622 0.145,0.055 4.57,0.101 9.834,0.101 h 9.569 v 21.163 21.164 l -0.375,0.081 c -0.206,0.045 -0.562,0.103 -0.791,0.128 l -0.417,0.047 v 2.833 2.834 l 2.821,0.045 c 3.387,0.056 3.09,0.343 3.093,-2.998 0.003,-2.784 -0.117,-3.163 -0.904,-2.861 -0.791,0.303 -0.76,1.233 -0.76,-22.689 0,-20.252 -0.025,-22.388 -0.264,-22.48 -0.145,-0.055 -4.531,-0.101 -9.746,-0.101 h -9.484 l -0.091,-0.375 c -0.049,-0.206 -0.07,-4.95 -0.044,-10.541 L 28.417,165.25 H 51 73.583 v 2.917 2.916 l -19.533,0.043 -19.534,0.042 -0.05,4.291 c -0.027,2.36 0.005,4.459 0.071,4.665 l 0.12,0.373 9.63,0.043 9.63,0.043 0.042,25.316 c 0.03,17.93 -0.01,25.379 -0.138,25.532 -0.099,0.12 -0.455,0.24 -0.792,0.268 l -0.612,0.051 -0.048,2.5 c -0.069,3.612 -0.409,3.25 3.051,3.25 h 2.913 v -2.899 c 0,-3.144 -0.025,-3.226 -0.93,-2.999 -0.221,0.055 -0.421,0.074 -0.443,0.041 -0.023,-0.033 -0.079,-12.172 -0.125,-26.976 L 56.75,177.75 47,177.667 37.25,177.583 v -1.833 -1.833 l 19.4,-0.043 c 14,-0.03 19.463,-0.094 19.625,-0.228 0.18,-0.15 0.225,-1.272 0.225,-5.647 v -5.46 l -0.375,-0.101 c -0.45,-0.12 -49.951,-0.115 -50.25,0.006 M 147.833,218.25 V 220 h 3.834 3.833 v 8.167 8.166 h 1.833 1.834 V 228.167 220 h 3.833 3.833 v -1.75 -1.75 h -9.5 -9.5 v 1.75 m 53.834,8.167 v 9.916 h 8.5 8.5 v -1.833 -1.833 h -6.75 -6.75 V 226.333 220 h 6.75 6.75 v -1.75 -1.75 h -8.5 -8.5 v 9.917 m 60.5,-9.731 c -0.505,0.081 -1.067,0.215 -1.25,0.297 -0.184,0.083 -0.596,0.246 -0.917,0.363 -6.157,2.243 -7.466,12.152 -2.19,16.571 2.508,2.1 3.379,2.285 11.148,2.373 l 6.542,0.073 v -1.848 -1.848 h -5.803 c -6.165,0 -7.247,-0.097 -8.401,-0.753 -4.265,-2.423 -4.309,-8.508 -0.079,-10.987 1.351,-0.792 2.621,-0.927 8.711,-0.927 h 5.572 v -1.75 -1.75 l -6.208,0.019 c -3.415,0.011 -6.621,0.086 -7.125,0.167 m 49.166,9.731 v 9.916 h 1.834 1.833 v -9.916 -9.917 h -1.833 -1.834 v 9.917 m 16.5,-5.917 v 4 h -5.75 -5.75 v 1.833 1.834 h 5.75 5.75 v 4.083 4.083 h 1.75 1.75 v -9.916 -9.917 h -1.75 -1.75 v 4 M 206.5,226.167 V 228 h 5.667 5.666 v -1.833 -1.834 h -5.666 -5.667 v 1.834 m -157.87,8.38 0.047,1.964 -1.963,-0.047 -1.964,-0.047 -0.048,-1.739 c -0.065,-2.355 -0.212,-2.197 2.003,-2.142 l 1.878,0.047 0.047,1.964 m 8.703,-0.047 v 2 h -1.916 c -1.055,0 -1.919,-0.056 -1.922,-0.125 -0.011,-0.276 -0.017,-3.472 -0.006,-3.667 0.008,-0.154 0.511,-0.208 1.928,-0.208 h 1.916 v 2"
       inkscape:connector-curvature="0"
       style="fill:#0aecec;fill-rule:evenodd;stroke:none" />
  </g>
</svg>
