<?xml version="1.0" encoding="utf-8"?>
<!-- Generator: Adobe Illustrator 16.0.0, SVG Export Plug-In . SVG Version: 6.00 Build 0)  -->
<!DOCTYPE svg PUBLIC "-//W3C//DTD SVG 1.1//EN" "http://www.w3.org/Graphics/SVG/1.1/DTD/svg11.dtd">
<svg version="1.1" id="Layer_1" xmlns="http://www.w3.org/2000/svg" xmlns:xlink="http://www.w3.org/1999/xlink" x="0px" y="0px"
	 width="1000px" height="1000px" viewBox="0 0 1000 1000" enable-background="new 0 0 1000 1000" xml:space="preserve">
<radialGradient id="SVGID_1_" cx="500" cy="500" r="500" gradientUnits="userSpaceOnUse">
	<stop  offset="0" style="stop-color:#414042"/>
	<stop  offset="1" style="stop-color:#231F20"/>
</radialGradient>
<rect fill-rule="evenodd" clip-rule="evenodd" fill="url(#SVGID_1_)" width="1000" height="1000"/>
<g>
	<g>
		<path fill-rule="evenodd" clip-rule="evenodd" fill="#0AECEC" d="M117.836,466.164c1.586-0.008,2.026,0.363,2.025,1.984
			c-0.049,36.281-0.04,72.563-0.04,108.845c0,2.164,0.013,2.262,2.185,2.136c1.531-0.089,2.007,0.361,1.957,1.926
			c-0.119,3.657-0.105,7.324-0.009,10.982c0.039,1.43-0.452,1.743-1.793,1.712c-3.77-0.089-7.545-0.059-11.315-0.008
			c-0.928,0.013-1.252-0.231-1.241-1.188c0.043-4.052,0.043-8.101-0.004-12.15c-0.009-0.948,0.298-1.279,1.239-1.26
			c0.814,0.016,1.662,0.201,2.455-0.172c0.698-0.486,0.353-1.211,0.353-1.815c0.019-34.148,0.015-68.301,0.001-102.455
			c0-0.588,0.207-1.218-0.198-1.766c-0.297-0.323-0.686-0.307-1.076-0.307l-21.274,0.056c-8.098-0.019-16.192-0.041-24.289-0.06
			c-2.432-0.008-2.436-0.006-2.436-2.4c0-20.577,0-41.156,0-61.733c0-2.211,0.004-2.213,2.13-2.213
			c40.769,0,81.536-0.004,122.305,0.013c0.756,0,1.879-0.026,2.139,0.714c0,0.888-0.008,1.778,0.002,2.667l-0.141,23.836
			c-0.321,0.846-1.426,0.903-2.318,0.903c-31.288-0.001-62.576,0.011-93.865-0.036c-1.582-0.002-2.006,0.344-2.014,1.994
			c-0.013,3.808-0.034,2.027,0.008,5.986c0.017,1.585,0.227,2.14,2.021,2.13c14.978-0.09,29.957-0.05,44.934-0.044
			c2.541,0.001,2.109-0.158,2.109,2.13c0.008,43.492,0.019,86.988-0.038,130.479c-0.001,1.775,0.495,2.409,2.19,2.115
			c1.518-0.262,1.962,0.338,1.913,1.876c-0.118,3.768-0.073,7.542-0.019,11.314c0.015,1.074-0.288,1.41-1.397,1.392
			c-3.882-0.069-7.767-0.077-11.648,0.005c-1.24,0.029-1.469-0.439-1.456-1.533c0.049-3.882,0.059-7.769-0.009-11.651
			c-0.019-1.12,0.369-1.523,1.432-1.409c0.273,0.027,0.559-0.034,0.83,0.012c1.534,0.259,1.836-0.486,1.829-1.878
			c-0.045-10.596-0.023-21.192-0.023-31.789c0-30.845-0.015-61.688,0.036-92.533c0.002-1.634-0.344-2.105-2.061-2.096
			c-15.09,0.077-30.179,0.021-45.268,0.079c-1.471,0.006-1.864-0.354-1.843-1.825c0.084-6.324,0.034-12.649,0.036-18.974
			c0-2.702-0.03-2.16,2.088-2.162c19.696-0.002,39.389,0.013,59.083,0.019c0.663,0,1.327-0.041,1.99-0.063
			c0.894-0.004,1.785-0.006,2.677-0.007c8.097,0.014,16.194,0.029,24.294,0.042c2.329,0.006,4.66-0.028,6.988,0.015
			c0.915,0.019,1.252-0.254,1.239-1.22c-0.047-4.215-0.049-8.433-0.002-12.647c0.012-1.128-0.442-1.404-1.484-1.404
			c-7.321,0.014-14.644-0.039-21.967-0.039c-28.404-0.006-56.805,0.001-85.208,0.006c-1.387,0-2.771,0.022-4.155-0.002
			c-0.697-0.013-1.043,0.227-0.961,0.963c0.029,0.272,0.003,0.553,0.003,0.831c0,16.644,0.022,33.285-0.037,49.928
			c-0.006,1.486,0.391,1.829,1.829,1.823L117.836,466.164z M111.541,586.35c0.003,0,0.008,0,0.012,0c0,1.385,0.025,2.77-0.01,4.153
			c-0.021,0.851,0.142,1.294,1.176,1.264c2.71-0.075,5.426-0.057,8.139-0.004c0.899,0.019,1.16-0.332,1.154-1.154
			c-0.021-2.767-0.024-5.535,0.007-8.305c0.009-0.898-0.413-1.137-1.222-1.129c-2.713,0.023-5.425,0.034-8.139-0.008
			c-0.898-0.009-1.152,0.375-1.129,1.196C111.567,583.69,111.541,585.022,111.541,586.35z M143.708,586.506
			c0-1.388-0.035-2.772,0.012-4.154c0.028-0.824-0.199-1.199-1.106-1.185c-2.767,0.046-5.538,0.04-8.306,0.007
			c-0.907-0.012-1.126,0.399-1.117,1.214c0.033,2.715,0.041,5.428,0.002,8.142c-0.013,0.923,0.273,1.252,1.234,1.232
			c2.714-0.059,5.428-0.046,8.141,0c0.844,0.015,1.195-0.203,1.154-1.104C143.655,589.275,143.704,587.891,143.708,586.506z"/>
		<linearGradient id="SVGID_2_" gradientUnits="userSpaceOnUse" x1="192.2891" y1="635.9453" x2="192.289" y2="371.8975">
			<stop  offset="0.0056" style="stop-color:#BBBCBE"/>
			<stop  offset="0.2921" style="stop-color:#989CA0"/>
			<stop  offset="0.6517" style="stop-color:#BFBEC2"/>
			<stop  offset="0.8652" style="stop-color:#9EA0A4"/>
			<stop  offset="1" style="stop-color:#A7A9AC"/>
			<stop  offset="1" style="stop-color:#C3C6CA"/>
		</linearGradient>
		<path fill-rule="evenodd" clip-rule="evenodd" fill="url(#SVGID_2_)" d="M180.154,472.781c-0.888,0.466-0.423,1.288-0.423,1.918
			c-0.03,38.825-0.028,77.646-0.04,116.469c0,0.762,0.162,1.552-0.275,2.265c-7.208,0.018-14.419,0.033-21.626,0.046
			c-1.5,0.004-3.002-0.074-4.493,0.027c-1.336,0.088-1.632-0.426-1.628-1.702c0.048-21.247,0.048-42.493,0.056-63.738
			c0-0.608-0.045-1.216-0.069-1.823c-0.172-1.49-0.193-2.979,0.011-4.463c0.011-2.663,0.028-5.324,0.028-7.985
			c0.003-22.527,0.019-45.053-0.038-67.577c-0.001-1.502,0.413-1.819,1.846-1.815c15.146,0.051,30.292,0.013,45.437,0.063
			c1.399,0.003,1.909-0.246,1.889-1.786c-0.094-6.711-0.073-13.426-0.029-20.141c0.01-1.221-0.205-1.757-1.601-1.696
			c-2.476,0.105-2.479,0.014-2.479-2.501c-0.003-3.496,0.032-6.99-0.028-10.484c-0.021-1.125,0.285-1.613,1.477-1.6
			c3.938,0.045,7.878,0.045,11.817,0.006c1.034-0.012,1.352,0.397,1.344,1.381c-0.032,3.938-0.033,7.877,0.006,11.816
			c0.012,1.066-0.333,1.57-1.444,1.42c-0.326-0.043-0.669,0.034-0.998-0.013c-1.287-0.18-1.697,0.31-1.688,1.641
			c0.056,8.765,0.03,17.531,0.031,26.298c0,2.105,0.006,2.108-2.126,2.108c-15.092,0-30.181,0.019-45.273-0.029
			c-1.366-0.006-1.748,0.305-1.748,1.718c0.041,44.053,0.031,88.104,0.031,132.155c0,2.174,0.006,2.181,2.117,2.185
			c3.829,0.004,7.658-0.062,11.484,0.033c1.473,0.038,1.85-0.416,1.848-1.875c-0.041-38.617-0.032-77.229-0.032-115.844
			c0-3.056,0-3.056,3.015-3.056c14.756,0,29.514-0.022,44.272,0.037c1.497,0.005,1.803-0.427,1.799-1.855
			c-0.056-13.921-0.052-27.85-0.005-41.774c0.005-1.324-0.231-1.854-1.688-1.773c-2.329,0.127-2.335,0.029-2.335-2.384
			c-0.002-3.548,0.036-7.101-0.024-10.651c-0.017-1.081,0.171-1.575,1.42-1.553c3.882,0.077,7.768,0.045,11.65,0.015
			c0.948-0.007,1.423,0.228,1.412,1.3c-0.047,3.995-0.062,7.992,0.004,11.983c0.022,1.347-0.699,1.343-1.682,1.343
			c-2.604,0.002-2.383-0.461-2.378,2.382l0.013,47.86c0.024,1.182-0.392,1.514-1.536,1.504L180.154,472.781z M203.939,418.865
			c1.328,0,2.66-0.065,3.983,0.021c1.042,0.067,1.375-0.363,1.369-1.326c-0.02-2.709-0.02-5.422-0.001-8.133
			c0.007-0.924-0.4-1.267-1.313-1.255c-2.655,0.032-5.311,0.028-7.968-0.004c-0.913-0.009-1.296,0.333-1.287,1.267
			c0.032,2.711,0.035,5.423-0.004,8.135c-0.015,1.033,0.421,1.356,1.404,1.309C201.389,418.816,202.667,418.864,203.939,418.865z
			 M220.578,413.41c0,1.44,0.032,2.881-0.013,4.322c-0.026,0.847,0.26,1.164,1.143,1.149c2.715-0.049,5.434-0.049,8.148,0.003
			c0.993,0.019,1.235-0.435,1.227-1.303c-0.022-2.714-0.035-5.432,0-8.146c0.014-0.95-0.386-1.267-1.287-1.255
			c-2.717,0.028-5.433,0.026-8.147,0.003c-0.774-0.007-1.102,0.277-1.079,1.071C220.604,410.637,220.578,412.024,220.578,413.41z"/>
	</g>
	<g>
		<g>
			<linearGradient id="SVGID_3_" gradientUnits="userSpaceOnUse" x1="298.0479" y1="474.6768" x2="298.0479" y2="544.0326">
				<stop  offset="0.0056" style="stop-color:#BBBCBE"/>
				<stop  offset="0.2921" style="stop-color:#989CA0"/>
				<stop  offset="0.6517" style="stop-color:#BFBEC2"/>
				<stop  offset="0.8652" style="stop-color:#9EA0A4"/>
				<stop  offset="1" style="stop-color:#A7A9AC"/>
				<stop  offset="1" style="stop-color:#C3C6CA"/>
			</linearGradient>
			<path fill="url(#SVGID_3_)" d="M333.55,460.792h-29.072v60.954h-12.752v-60.954h-29.18v-12.86h71.004V460.792z"/>
			<linearGradient id="SVGID_4_" gradientUnits="userSpaceOnUse" x1="378.5083" y1="474.6768" x2="378.5083" y2="544.0326">
				<stop  offset="0.0056" style="stop-color:#BBBCBE"/>
				<stop  offset="0.2921" style="stop-color:#989CA0"/>
				<stop  offset="0.6517" style="stop-color:#BFBEC2"/>
				<stop  offset="0.8652" style="stop-color:#9EA0A4"/>
				<stop  offset="1" style="stop-color:#A7A9AC"/>
				<stop  offset="1" style="stop-color:#C3C6CA"/>
			</linearGradient>
			<path fill="url(#SVGID_4_)" d="M410.39,521.746h-63.762v-73.814h63.762v12.86h-50.903v48.094h50.903V521.746z M407.04,490.727
				h-42.148v-12.859h42.148V490.727z"/>
			<linearGradient id="SVGID_5_" gradientUnits="userSpaceOnUse" x1="466.6411" y1="474.6768" x2="466.6411" y2="544.0326">
				<stop  offset="0.0056" style="stop-color:#BBBCBE"/>
				<stop  offset="0.2921" style="stop-color:#989CA0"/>
				<stop  offset="0.6517" style="stop-color:#BFBEC2"/>
				<stop  offset="0.8652" style="stop-color:#9EA0A4"/>
				<stop  offset="1" style="stop-color:#A7A9AC"/>
				<stop  offset="1" style="stop-color:#C3C6CA"/>
			</linearGradient>
			<path fill="url(#SVGID_5_)" d="M506.035,521.746h-41.61c-10.736,0-19.615-3.567-26.641-10.701
				c-7.024-7.131-10.537-16.139-10.537-27.018c0-10.806,3.476-19.526,10.43-26.154c6.951-6.629,15.867-9.941,26.748-9.941h41.61
				v12.86h-41.61c-7.062,0-12.879,2.271-17.454,6.809c-4.576,4.538-6.863,10.376-6.863,17.506c0,7.063,2.288,12.792,6.863,17.185
				c4.575,4.396,10.392,6.594,17.454,6.594h41.61V521.746z"/>
			<linearGradient id="SVGID_6_" gradientUnits="userSpaceOnUse" x1="559.9072" y1="474.6772" x2="559.9072" y2="544.0334">
				<stop  offset="0.0056" style="stop-color:#BBBCBE"/>
				<stop  offset="0.2921" style="stop-color:#989CA0"/>
				<stop  offset="0.6517" style="stop-color:#BFBEC2"/>
				<stop  offset="0.8652" style="stop-color:#9EA0A4"/>
				<stop  offset="1" style="stop-color:#A7A9AC"/>
				<stop  offset="1" style="stop-color:#C3C6CA"/>
			</linearGradient>
			<path fill="url(#SVGID_6_)" d="M596.382,515.369c0,4.756-1.62,7.135-4.865,7.135c-2.374,0-5.04-1.478-7.994-4.434l-47.337-47.551
				v51.227h-12.753v-67.44c0-1.727,0.469-3.222,1.406-4.485c0.936-1.259,2.27-1.889,3.998-1.889c2.378,0,4.826,1.259,7.349,3.78
				l47.337,47.446v-51.227h12.859V515.369z"/>
			<linearGradient id="SVGID_7_" gradientUnits="userSpaceOnUse" x1="626.5898" y1="474.6768" x2="626.5898" y2="544.0326">
				<stop  offset="0.0056" style="stop-color:#BBBCBE"/>
				<stop  offset="0.2921" style="stop-color:#989CA0"/>
				<stop  offset="0.6517" style="stop-color:#BFBEC2"/>
				<stop  offset="0.8652" style="stop-color:#9EA0A4"/>
				<stop  offset="1" style="stop-color:#A7A9AC"/>
				<stop  offset="1" style="stop-color:#C3C6CA"/>
			</linearGradient>
			<path fill="url(#SVGID_7_)" d="M633.02,521.746h-12.86v-73.814h12.86V521.746z"/>
			<linearGradient id="SVGID_8_" gradientUnits="userSpaceOnUse" x1="692.4043" y1="474.6768" x2="692.4043" y2="544.0326">
				<stop  offset="0.0056" style="stop-color:#BBBCBE"/>
				<stop  offset="0.2921" style="stop-color:#989CA0"/>
				<stop  offset="0.6517" style="stop-color:#BFBEC2"/>
				<stop  offset="0.8652" style="stop-color:#9EA0A4"/>
				<stop  offset="1" style="stop-color:#A7A9AC"/>
				<stop  offset="1" style="stop-color:#C3C6CA"/>
			</linearGradient>
			<path fill="url(#SVGID_8_)" d="M731.797,521.746h-41.608c-10.736,0-19.615-3.567-26.64-10.701
				c-7.024-7.131-10.537-16.139-10.537-27.018c0-10.806,3.475-19.526,10.428-26.154c6.953-6.629,15.869-9.941,26.749-9.941h41.608
				v12.86h-41.608c-7.061,0-12.879,2.271-17.455,6.809c-4.575,4.538-6.861,10.376-6.861,17.506c0,7.063,2.286,12.792,6.861,17.185
				c4.576,4.396,10.395,6.594,17.455,6.594h41.608V521.746z"/>
			<linearGradient id="SVGID_9_" gradientUnits="userSpaceOnUse" x1="794.209" y1="474.6768" x2="794.209" y2="544.0326">
				<stop  offset="0.0056" style="stop-color:#BBBCBE"/>
				<stop  offset="0.2921" style="stop-color:#989CA0"/>
				<stop  offset="0.6517" style="stop-color:#BFBEC2"/>
				<stop  offset="0.8652" style="stop-color:#9EA0A4"/>
				<stop  offset="1" style="stop-color:#A7A9AC"/>
				<stop  offset="1" style="stop-color:#C3C6CA"/>
			</linearGradient>
			<path fill="url(#SVGID_9_)" d="M841.708,484.027c0,10.878-3.496,19.887-10.482,27.018c-6.99,7.134-15.887,10.701-26.693,10.701
				h-20.644c-10.735,0-19.616-3.567-26.641-10.701c-7.024-7.131-10.537-16.139-10.537-27.018c0-10.806,3.477-19.526,10.43-26.154
				c6.952-6.629,15.868-9.941,26.748-9.941h20.644c10.951,0,19.887,3.313,26.8,9.941
				C838.25,464.501,841.708,473.221,841.708,484.027z M828.954,485.107c0-7.13-2.286-12.968-6.862-17.506
				c-4.574-4.538-10.427-6.809-17.56-6.809h-20.644c-7.062,0-12.878,2.271-17.454,6.809s-6.863,10.376-6.863,17.506
				c0,7.063,2.287,12.792,6.863,17.185c4.576,4.396,10.393,6.594,17.454,6.594h20.644c7.133,0,12.985-2.198,17.56-6.594
				C826.668,497.899,828.954,492.17,828.954,485.107z"/>
			<linearGradient id="SVGID_10_" gradientUnits="userSpaceOnUse" x1="894.0693" y1="474.6768" x2="894.0693" y2="544.0326">
				<stop  offset="0.0056" style="stop-color:#BBBCBE"/>
				<stop  offset="0.2921" style="stop-color:#989CA0"/>
				<stop  offset="0.6517" style="stop-color:#BFBEC2"/>
				<stop  offset="0.8652" style="stop-color:#9EA0A4"/>
				<stop  offset="1" style="stop-color:#A7A9AC"/>
				<stop  offset="1" style="stop-color:#C3C6CA"/>
			</linearGradient>
			<path fill="url(#SVGID_10_)" d="M935.624,498.941c0,6.988-2.486,12.609-7.457,16.858c-4.758,3.964-10.701,5.946-17.833,5.946
				h-56.308v-12.86h56.308c3.529,0,6.592-0.794,9.186-2.379c2.954-1.943,4.433-4.575,4.433-7.888c0-3.316-1.514-5.872-4.54-7.674
				c-2.522-1.515-5.549-2.271-9.078-2.271h-34.8c-6.413,0-11.779-1.765-16.103-5.295c-4.611-3.819-6.917-8.862-6.917-15.131
				c0-6.194,2.306-11.204,6.917-15.021c4.323-3.531,9.689-5.295,16.103-5.295h55.658v12.86h-55.658
				c-2.448,0-4.538,0.686-6.267,2.053c-1.73,1.368-2.597,3.208-2.597,5.513c0,2.375,0.866,4.215,2.597,5.512
				c1.729,1.296,3.818,1.944,6.267,1.944h34.8c7.132,0,13.075,2.054,17.833,6.161C933.138,486.299,935.624,491.953,935.624,498.941z
				"/>
		</g>
		<g>
			<path fill="#0AECEC" d="M416.831,550.043h-19.268v40.397h-8.451v-40.397h-19.339v-8.525h47.058V550.043z"/>
			<path fill="#0AECEC" d="M546.546,590.44h-42.259v-48.923h42.259v8.525H512.81v31.872h33.736V590.44z M544.327,569.883h-27.936
				v-8.524h27.936V569.883z"/>
			<path fill="#0AECEC" d="M688.725,590.44h-27.576c-7.115,0-13.001-2.364-17.656-7.095c-4.656-4.723-6.984-10.693-6.984-17.902
				c0-7.164,2.304-12.943,6.914-17.334c4.605-4.396,10.518-6.592,17.727-6.592h27.576v8.525h-27.576
				c-4.679,0-8.535,1.502-11.569,4.512c-3.031,3.009-4.548,6.876-4.548,11.603c0,4.682,1.517,8.478,4.548,11.389
				c3.034,2.912,6.891,4.369,11.569,4.369h27.576V590.44z"/>
			<path fill="#0AECEC" d="M787.283,590.44h-8.524v-48.923h8.524V590.44z M828.396,590.44h-8.524v-20.345h-28.721v-8.523h28.721
				v-20.055h8.524V590.44z"/>
		</g>
	</g>
</g>
</svg>
