<svg id="svg" version="1.1" width="400" height="400" viewBox="0 0 400 400" xmlns="http://www.w3.org/2000/svg" xmlns:xlink="http://www.w3.org/1999/xlink" ><g id="svgg"><path id="path0" d="" stroke="none" fill="#000000" fill-rule="evenodd"></path><path id="path1" d="M83.550 165.333 C 83.550 165.837,83.581 166.044,83.619 165.792 C 83.658 165.540,83.658 165.127,83.619 164.875 C 83.581 164.623,83.550 164.829,83.550 165.333 M92.042 168.448 C 92.202 168.490,92.465 168.490,92.625 168.448 C 92.785 168.406,92.654 168.372,92.333 168.372 C 92.013 168.372,91.881 168.406,92.042 168.448 M353.303 195.625 C 355.441 195.651,358.891 195.651,360.970 195.625 C 363.049 195.598,361.300 195.577,357.083 195.577 C 352.867 195.577,351.166 195.598,353.303 195.625 M214.559 198.083 C 214.559 198.908,214.587 199.267,214.622 198.880 C 214.657 198.493,214.657 197.818,214.623 197.380 C 214.588 196.942,214.560 197.258,214.559 198.083 M247.892 198.083 C 247.892 198.908,247.920 199.267,247.955 198.880 C 247.990 198.493,247.990 197.818,247.956 197.380 C 247.922 196.942,247.893 197.258,247.892 198.083 " stroke="none" fill="#6d6d6d" fill-rule="evenodd"></path><path id="path2" d="" stroke="none" fill="#ffffff" fill-rule="evenodd"></path><path id="path3" d="M78.700 162.533 C 78.463 162.771,78.419 167.780,78.651 168.146 C 78.731 168.273,79.086 168.385,79.440 168.397 L 80.083 168.417 80.083 173.000 L 80.083 177.583 70.507 177.626 C 64.865 177.652,60.867 177.733,60.775 177.825 C 60.577 178.023,60.596 237.163,60.795 237.362 C 60.874 237.440,63.408 237.485,66.427 237.461 L 71.917 237.417 71.959 213.292 L 72.001 189.167 81.626 189.164 C 86.919 189.163,91.343 189.102,91.457 189.030 C 91.618 188.928,91.674 186.596,91.707 178.658 L 91.750 168.417 92.333 168.389 C 92.654 168.374,93.010 168.356,93.125 168.348 C 93.416 168.328,93.424 162.824,93.133 162.533 C 92.853 162.253,87.813 162.253,87.533 162.533 C 87.394 162.673,87.333 163.578,87.333 165.533 C 87.333 168.369,87.345 168.421,87.940 168.350 C 88.044 168.338,88.326 168.402,88.566 168.493 L 89.003 168.660 88.960 177.455 L 88.917 186.250 79.311 186.293 C 71.525 186.328,69.670 186.378,69.520 186.559 C 69.386 186.721,69.323 193.442,69.292 210.683 L 69.250 234.583 66.333 234.583 L 63.417 234.583 63.417 207.583 L 63.417 180.583 72.985 180.540 C 79.713 180.510,82.619 180.442,82.776 180.312 C 82.956 180.163,83.000 178.977,83.000 174.331 L 83.000 168.536 83.424 168.430 C 83.658 168.371,83.923 168.369,84.015 168.426 C 84.536 168.748,84.667 168.141,84.667 165.402 C 84.667 162.880,84.643 162.666,84.344 162.506 C 83.875 162.255,78.955 162.279,78.700 162.533 M83.566 163.597 C 83.780 164.156,83.675 167.119,83.434 167.319 C 83.282 167.445,82.605 167.496,81.476 167.464 L 79.750 167.417 79.703 165.375 L 79.656 163.333 81.560 163.333 C 83.143 163.333,83.481 163.378,83.566 163.597 M92.250 165.417 L 92.250 167.417 90.333 167.417 L 88.417 167.417 88.370 165.370 L 88.323 163.323 90.286 163.370 L 92.250 163.417 92.250 165.417 M104.944 179.111 C 104.883 179.172,104.833 180.372,104.833 181.778 L 104.833 184.333 110.750 184.333 L 116.667 184.333 116.667 196.500 L 116.667 208.667 119.250 208.667 L 121.833 208.667 121.833 196.500 L 121.833 184.333 127.667 184.333 L 133.500 184.333 133.500 181.667 L 133.500 179.000 119.278 179.000 C 111.456 179.000,105.006 179.050,104.944 179.111 M138.611 179.111 C 138.550 179.172,138.500 185.847,138.500 193.944 L 138.500 208.667 151.333 208.667 L 164.167 208.667 164.167 206.083 L 164.167 203.500 154.000 203.500 L 143.833 203.500 143.833 193.917 L 143.833 184.333 154.000 184.333 L 164.167 184.333 164.167 181.667 L 164.167 179.000 151.444 179.000 C 144.447 179.000,138.672 179.050,138.611 179.111 M182.917 179.265 C 176.380 180.342,171.777 184.885,171.008 191.016 C 169.987 199.155,173.785 205.680,180.971 208.137 L 182.250 208.575 192.375 208.629 L 202.500 208.683 202.500 206.102 L 202.500 203.520 193.125 203.463 C 183.904 203.406,183.731 203.399,182.620 203.028 C 180.279 202.246,178.009 200.382,177.179 198.562 C 176.976 198.115,176.743 197.625,176.662 197.472 C 175.310 194.926,176.439 189.546,178.825 187.159 C 181.437 184.547,182.568 184.340,194.296 184.336 L 202.508 184.333 202.463 181.708 L 202.417 179.083 193.333 179.064 C 186.521 179.050,183.917 179.100,182.917 179.265 M210.543 179.274 C 210.245 179.421,209.833 179.813,209.626 180.145 L 209.250 180.750 209.203 194.708 L 209.156 208.667 211.935 208.667 L 214.713 208.667 214.660 202.708 C 214.630 199.431,214.620 194.912,214.637 192.667 L 214.669 188.583 224.460 198.383 C 234.623 208.555,235.152 209.024,236.500 209.049 C 238.745 209.090,238.677 209.601,238.626 192.996 L 238.583 179.083 235.958 179.037 L 233.333 178.992 233.333 189.200 L 233.333 199.408 223.375 189.476 C 212.096 178.227,212.314 178.401,210.543 179.274 M247.931 179.144 C 247.879 179.228,247.842 185.905,247.850 193.982 L 247.864 208.667 250.599 208.667 L 253.335 208.667 253.293 193.875 L 253.250 179.083 250.637 179.037 C 249.181 179.012,247.983 179.059,247.931 179.144 M273.250 179.265 C 265.748 180.501,261.167 185.849,261.125 193.417 C 261.085 200.586,264.844 205.981,271.417 208.187 C 272.583 208.578,272.589 208.579,282.708 208.630 L 292.833 208.681 292.833 206.101 L 292.833 203.520 283.458 203.459 L 274.083 203.398 272.831 202.979 C 263.203 199.759,264.805 185.569,274.917 184.498 C 275.742 184.411,280.112 184.338,284.629 184.336 L 292.842 184.333 292.796 181.708 L 292.750 179.083 283.667 179.064 C 276.854 179.050,274.250 179.100,273.250 179.265 M310.790 179.266 C 304.318 180.276,299.763 184.618,298.820 190.677 C 297.543 198.874,301.616 205.881,309.000 208.192 C 310.234 208.578,310.346 208.583,317.750 208.583 L 325.250 208.583 326.667 208.110 C 340.089 203.623,340.232 183.814,326.871 179.758 C 324.372 178.999,314.445 178.695,310.790 179.266 M348.000 179.263 C 347.313 179.388,346.600 179.559,346.417 179.644 C 342.336 181.526,341.083 183.312,341.083 187.246 C 341.083 190.918,342.370 193.045,345.500 194.548 C 347.347 195.435,348.077 195.497,356.583 195.500 C 361.118 195.501,364.693 195.574,365.333 195.677 C 370.191 196.461,371.030 201.072,366.667 203.008 L 365.750 203.415 353.625 203.465 L 341.500 203.514 341.500 206.090 L 341.500 208.667 353.825 208.667 C 368.285 208.667,368.195 208.677,370.875 206.697 C 376.174 202.783,375.203 194.116,369.147 191.266 C 367.040 190.275,367.134 190.284,357.583 190.180 L 348.750 190.083 348.046 189.626 C 346.199 188.425,346.420 185.810,348.452 184.809 L 349.250 184.417 360.875 184.368 L 372.500 184.319 372.500 181.659 L 372.500 179.000 360.875 179.018 C 351.850 179.032,348.970 179.087,348.000 179.263 M322.870 184.492 C 333.389 185.599,334.747 200.348,324.583 203.101 C 322.596 203.639,312.043 203.575,310.417 203.015 C 308.529 202.364,306.850 201.282,306.037 200.190 C 305.789 199.856,305.546 199.546,305.497 199.500 C 304.163 198.238,303.442 193.021,304.311 190.917 C 305.933 186.990,308.476 184.917,312.167 184.514 C 313.918 184.323,321.122 184.308,322.870 184.492 M145.833 193.667 L 145.833 196.333 154.333 196.333 L 162.833 196.333 162.833 193.667 L 162.833 191.000 154.333 191.000 L 145.833 191.000 145.833 193.667 " stroke="none" fill="#bbbcbe" fill-rule="evenodd"></path><path id="path4" d="M25.875 162.444 C 25.521 162.587,25.576 188.929,25.930 189.066 C 26.075 189.121,30.500 189.167,35.764 189.167 L 45.333 189.167 45.333 210.330 L 45.333 231.494 44.958 231.575 C 44.752 231.620,44.396 231.678,44.167 231.703 L 43.750 231.750 43.750 234.583 L 43.750 237.417 46.571 237.462 C 49.958 237.518,49.661 237.805,49.664 234.464 C 49.667 231.680,49.547 231.301,48.760 231.603 C 47.969 231.906,48.000 232.836,48.000 208.914 C 48.000 188.662,47.975 186.526,47.736 186.434 C 47.591 186.379,43.205 186.333,37.990 186.333 L 28.506 186.333 28.415 185.958 C 28.366 185.752,28.345 181.008,28.371 175.417 L 28.417 165.250 51.000 165.250 L 73.583 165.250 73.583 168.167 L 73.583 171.083 54.050 171.126 L 34.516 171.168 34.466 175.459 C 34.439 177.819,34.471 179.918,34.537 180.124 L 34.657 180.497 44.287 180.540 L 53.917 180.583 53.959 205.899 C 53.989 223.829,53.949 231.278,53.821 231.431 C 53.722 231.551,53.366 231.671,53.029 231.699 L 52.417 231.750 52.369 234.250 C 52.300 237.862,51.960 237.500,55.420 237.500 L 58.333 237.500 58.333 234.601 C 58.333 231.457,58.308 231.375,57.403 231.602 C 57.182 231.657,56.982 231.676,56.960 231.643 C 56.937 231.610,56.881 219.471,56.835 204.667 L 56.750 177.750 47.000 177.667 L 37.250 177.583 37.250 175.750 L 37.250 173.917 56.650 173.874 C 70.650 173.844,76.113 173.780,76.275 173.646 C 76.455 173.496,76.500 172.374,76.500 167.999 L 76.500 162.539 76.125 162.438 C 75.675 162.318,26.174 162.323,25.875 162.444 M147.833 218.250 L 147.833 220.000 151.667 220.000 L 155.500 220.000 155.500 228.167 L 155.500 236.333 157.333 236.333 L 159.167 236.333 159.167 228.167 L 159.167 220.000 163.000 220.000 L 166.833 220.000 166.833 218.250 L 166.833 216.500 157.333 216.500 L 147.833 216.500 147.833 218.250 M201.667 226.417 L 201.667 236.333 210.167 236.333 L 218.667 236.333 218.667 234.500 L 218.667 232.667 211.917 232.667 L 205.167 232.667 205.167 226.333 L 205.167 220.000 211.917 220.000 L 218.667 220.000 218.667 218.250 L 218.667 216.500 210.167 216.500 L 201.667 216.500 201.667 226.417 M262.167 216.686 C 261.662 216.767,261.100 216.901,260.917 216.983 C 260.733 217.066,260.321 217.229,260.000 217.346 C 253.843 219.589,252.534 229.498,257.810 233.917 C 260.318 236.017,261.189 236.202,268.958 236.290 L 275.500 236.363 275.500 234.515 L 275.500 232.667 269.697 232.667 C 263.532 232.667,262.450 232.570,261.296 231.914 C 257.031 229.491,256.987 223.406,261.217 220.927 C 262.568 220.135,263.838 220.000,269.928 220.000 L 275.500 220.000 275.500 218.250 L 275.500 216.500 269.292 216.519 C 265.877 216.530,262.671 216.605,262.167 216.686 M311.333 226.417 L 311.333 236.333 313.167 236.333 L 315.000 236.333 315.000 226.417 L 315.000 216.500 313.167 216.500 L 311.333 216.500 311.333 226.417 M327.833 220.500 L 327.833 224.500 322.083 224.500 L 316.333 224.500 316.333 226.333 L 316.333 228.167 322.083 228.167 L 327.833 228.167 327.833 232.250 L 327.833 236.333 329.583 236.333 L 331.333 236.333 331.333 226.417 L 331.333 216.500 329.583 216.500 L 327.833 216.500 327.833 220.500 M206.500 226.167 L 206.500 228.000 212.167 228.000 L 217.833 228.000 217.833 226.167 L 217.833 224.333 212.167 224.333 L 206.500 224.333 206.500 226.167 M48.630 234.547 L 48.677 236.511 46.714 236.464 L 44.750 236.417 44.702 234.678 C 44.637 232.323,44.490 232.481,46.705 232.536 L 48.583 232.583 48.630 234.547 M57.333 234.500 L 57.333 236.500 55.417 236.500 C 54.362 236.500,53.498 236.444,53.495 236.375 C 53.484 236.099,53.478 232.903,53.489 232.708 C 53.497 232.554,54.000 232.500,55.417 232.500 L 57.333 232.500 57.333 234.500 " stroke="none" fill="#0aecec" fill-rule="evenodd"></path></g></svg>