<?xml version="1.0" encoding="UTF-8"?>
<svg version="1.1" viewBox="0 0 400 400" xmlns="http://www.w3.org/2000/svg">
<g fill-rule="evenodd">
<path d="m83.55 165.33c0 0.504 0.031 0.711 0.069 0.459 0.039-0.252 0.039-0.665 0-0.917-0.038-0.252-0.069-0.046-0.069 0.458m8.492 3.115c0.16 0.042 0.423 0.042 0.583 0s0.029-0.076-0.292-0.076c-0.32 0-0.452 0.034-0.291 0.076m261.26 27.177c2.138 0.026 5.588 0.026 7.667 0 2.079-0.027 0.33-0.048-3.887-0.048-4.216 0-5.917 0.021-3.78 0.048m-138.74 2.458c0 0.825 0.028 1.184 0.063 0.797s0.035-1.062 1e-3 -1.5c-0.035-0.438-0.063-0.122-0.064 0.703m33.333 0c0 0.825 0.028 1.184 0.063 0.797s0.035-1.062 1e-3 -1.5-0.063-0.122-0.064 0.703" fill="#6d6d6d"/>
<path d="m78.7 162.53c-0.237 0.238-0.281 5.247-0.049 5.613 0.08 0.127 0.435 0.239 0.789 0.251l0.643 0.02v4.583 4.583l-9.576 0.043c-5.642 0.026-9.64 0.107-9.732 0.199-0.198 0.198-0.179 59.338 0.02 59.537 0.079 0.078 2.613 0.123 5.632 0.099l5.49-0.044 0.042-24.125 0.042-24.125 9.625-3e-3c5.293-1e-3 9.717-0.062 9.831-0.134 0.161-0.102 0.217-2.434 0.25-10.372l0.043-10.241 0.583-0.028c0.321-0.015 0.677-0.033 0.792-0.041 0.291-0.02 0.299-5.524 8e-3 -5.815-0.28-0.28-5.32-0.28-5.6 0-0.139 0.14-0.2 1.045-0.2 3 0 2.836 0.012 2.888 0.607 2.817 0.104-0.012 0.386 0.052 0.626 0.143l0.437 0.167-0.043 8.795-0.043 8.795-9.606 0.043c-7.786 0.035-9.641 0.085-9.791 0.266-0.134 0.162-0.197 6.883-0.228 24.124l-0.042 23.9h-2.917-2.916v-27-27l9.568-0.043c6.728-0.03 9.634-0.098 9.791-0.228 0.18-0.149 0.224-1.335 0.224-5.981v-5.795l0.424-0.106c0.234-0.059 0.499-0.061 0.591-4e-3 0.521 0.322 0.652-0.285 0.652-3.024 0-2.522-0.024-2.736-0.323-2.896-0.469-0.251-5.389-0.227-5.644 0.027m4.866 1.064c0.214 0.559 0.109 3.522-0.132 3.722-0.152 0.126-0.829 0.177-1.958 0.145l-1.726-0.047-0.047-2.042-0.047-2.042h1.904c1.583 0 1.921 0.045 2.006 0.264m8.684 1.82v2h-1.917-1.916l-0.047-2.047-0.047-2.047 1.963 0.047 1.964 0.047v2m12.694 13.694c-0.061 0.061-0.111 1.261-0.111 2.667v2.555h5.917 5.917v12.167 12.167h2.583 2.583v-12.167-12.167h5.834 5.833v-2.666-2.667h-14.222c-7.822 0-14.272 0.05-14.334 0.111m33.667 0c-0.061 0.061-0.111 6.736-0.111 14.833v14.723h12.833 12.834v-2.584-2.583h-10.167-10.167v-9.583-9.584h10.167 10.167v-2.666-2.667h-12.723c-6.997 0-12.772 0.05-12.833 0.111m44.306 0.154c-6.537 1.077-11.14 5.62-11.909 11.751-1.021 8.139 2.777 14.664 9.963 17.121l1.279 0.438 10.125 0.054 10.125 0.054v-2.581-2.582l-9.375-0.057c-9.221-0.057-9.394-0.064-10.505-0.435-2.341-0.782-4.611-2.646-5.441-4.466-0.203-0.447-0.436-0.937-0.517-1.09-1.352-2.546-0.223-7.926 2.163-10.313 2.612-2.612 3.743-2.819 15.471-2.823l8.212-3e-3 -0.045-2.625-0.046-2.625-9.084-0.019c-6.812-0.014-9.416 0.036-10.416 0.201m27.626 9e-3c-0.298 0.147-0.71 0.539-0.917 0.871l-0.376 0.605-0.047 13.958-0.047 13.959h2.779 2.778l-0.053-5.959c-0.03-3.277-0.04-7.796-0.023-10.041l0.032-4.084 9.791 9.8c10.163 10.172 10.692 10.641 12.04 10.666 2.245 0.041 2.177 0.552 2.126-16.053l-0.043-13.913-2.625-0.046-2.625-0.045v10.208 10.208l-9.958-9.932c-11.279-11.249-11.061-11.075-12.832-10.202m37.388-0.13c-0.052 0.084-0.089 6.761-0.081 14.838l0.014 14.685h2.735 2.736l-0.042-14.792-0.043-14.792-2.613-0.046c-1.456-0.025-2.654 0.022-2.706 0.107m25.319 0.121c-7.502 1.236-12.083 6.584-12.125 14.152-0.04 7.169 3.719 12.564 10.292 14.77 1.166 0.391 1.172 0.392 11.291 0.443l10.125 0.051v-2.58-2.581l-9.375-0.061-9.375-0.061-1.252-0.419c-9.628-3.22-8.026-17.41 2.086-18.481 0.825-0.087 5.195-0.16 9.712-0.162l8.213-3e-3 -0.046-2.625-0.046-2.625-9.083-0.019c-6.813-0.014-9.417 0.036-10.417 0.201m37.54 1e-3c-6.472 1.01-11.027 5.352-11.97 11.411-1.277 8.197 2.796 15.204 10.18 17.515 1.234 0.386 1.346 0.391 8.75 0.391h7.5l1.417-0.473c13.422-4.487 13.565-24.296 0.204-28.352-2.499-0.759-12.426-1.063-16.081-0.492m37.21-3e-3c-0.687 0.125-1.4 0.296-1.583 0.381-4.081 1.882-5.334 3.668-5.334 7.602 0 3.672 1.287 5.799 4.417 7.302 1.847 0.887 2.577 0.949 11.083 0.952 4.535 1e-3 8.11 0.074 8.75 0.177 4.858 0.784 5.697 5.395 1.334 7.331l-0.917 0.407-12.125 0.05-12.125 0.049v2.576 2.577h12.325c14.46 0 14.37 0.01 17.05-1.97 5.299-3.914 4.328-12.581-1.728-15.431-2.107-0.991-2.013-0.982-11.564-1.086l-8.833-0.097-0.704-0.457c-1.847-1.201-1.626-3.816 0.406-4.817l0.798-0.392 11.625-0.049 11.625-0.049v-2.66-2.659l-11.625 0.018c-9.025 0.014-11.905 0.069-12.875 0.245m-25.13 5.229c10.519 1.107 11.877 15.856 1.713 18.609-1.987 0.538-12.54 0.474-14.166-0.086-1.888-0.651-3.567-1.733-4.38-2.825-0.248-0.334-0.491-0.644-0.54-0.69-1.334-1.262-2.055-6.479-1.186-8.583 1.622-3.927 4.165-6 7.856-6.403 1.751-0.191 8.955-0.206 10.703-0.022m-177.04 9.175v2.666h8.5 8.5v-2.666-2.667h-8.5-8.5v2.667" fill="#bbbcbe"/>
<path d="m25.875 162.44c-0.354 0.143-0.299 26.485 0.055 26.622 0.145 0.055 4.57 0.101 9.834 0.101h9.569v21.163 21.164l-0.375 0.081c-0.206 0.045-0.562 0.103-0.791 0.128l-0.417 0.047v2.833 2.834l2.821 0.045c3.387 0.056 3.09 0.343 3.093-2.998 3e-3 -2.784-0.117-3.163-0.904-2.861-0.791 0.303-0.76 1.233-0.76-22.689 0-20.252-0.025-22.388-0.264-22.48-0.145-0.055-4.531-0.101-9.746-0.101h-9.484l-0.091-0.375c-0.049-0.206-0.07-4.95-0.044-10.541l0.046-10.167h22.583 22.583v2.917 2.916l-19.533 0.043-19.534 0.042-0.05 4.291c-0.027 2.36 5e-3 4.459 0.071 4.665l0.12 0.373 9.63 0.043 9.63 0.043 0.042 25.316c0.03 17.93-0.01 25.379-0.138 25.532-0.099 0.12-0.455 0.24-0.792 0.268l-0.612 0.051-0.048 2.5c-0.069 3.612-0.409 3.25 3.051 3.25h2.913v-2.899c0-3.144-0.025-3.226-0.93-2.999-0.221 0.055-0.421 0.074-0.443 0.041-0.023-0.033-0.079-12.172-0.125-26.976l-0.085-26.917-9.75-0.083-9.75-0.084v-1.833-1.833l19.4-0.043c14-0.03 19.463-0.094 19.625-0.228 0.18-0.15 0.225-1.272 0.225-5.647v-5.46l-0.375-0.101c-0.45-0.12-49.951-0.115-50.25 6e-3m121.96 55.806v1.75h3.834 3.833v8.167 8.166h1.833 1.834v-8.166-8.167h3.833 3.833v-1.75-1.75h-9.5-9.5v1.75m53.834 8.167v9.916h8.5 8.5v-1.833-1.833h-6.75-6.75v-6.334-6.333h6.75 6.75v-1.75-1.75h-8.5-8.5v9.917m60.5-9.731c-0.505 0.081-1.067 0.215-1.25 0.297-0.184 0.083-0.596 0.246-0.917 0.363-6.157 2.243-7.466 12.152-2.19 16.571 2.508 2.1 3.379 2.285 11.148 2.373l6.542 0.073v-1.848-1.848h-5.803c-6.165 0-7.247-0.097-8.401-0.753-4.265-2.423-4.309-8.508-0.079-10.987 1.351-0.792 2.621-0.927 8.711-0.927h5.572v-1.75-1.75l-6.208 0.019c-3.415 0.011-6.621 0.086-7.125 0.167m49.166 9.731v9.916h1.834 1.833v-9.916-9.917h-1.833-1.834v9.917m16.5-5.917v4h-5.75-5.75v1.833 1.834h5.75 5.75v4.083 4.083h1.75 1.75v-9.916-9.917h-1.75-1.75v4m-121.33 5.667v1.833h5.667 5.666v-1.833-1.834h-5.666-5.667v1.834m-157.87 8.38l0.047 1.964-1.963-0.047-1.964-0.047-0.048-1.739c-0.065-2.355-0.212-2.197 2.003-2.142l1.878 0.047 0.047 1.964m8.703-0.047v2h-1.916c-1.055 0-1.919-0.056-1.922-0.125-0.011-0.276-0.017-3.472-6e-3 -3.667 8e-3 -0.154 0.511-0.208 1.928-0.208h1.916v2" fill="#0aecec"/>
</g>
</svg>
